Coordinates
version=1
nRows=9
nColumns=24
inDegrees=yes

Units are S.I. units (second, meters, Newtons, ...)
Angles are in degrees.

endheader
time	pelvis_tilt	pelvis_list	pelvis_rotation	pelvis_tx	pelvis_ty	pelvis_tz	hip_flexion_r	hip_adduction_r	hip_rotation_r	knee_angle_r	ankle_angle_r	subtalar_angle_r	mtp_angle_r	hip_flexion_l	hip_adduction_l	hip_rotation_l	knee_angle_l	ankle_angle_l	subtalar_angle_l	mtp_angle_l	lumbar_extension	lumbar_bending	lumbar_rotation
      2.78500000	     24.65524842	     -1.51298767	     -4.76834564	     -0.55022284	      0.95318992	      0.04411456	    -47.67967950	      1.92301687	     -7.41465970	     -1.46855450	     15.63090391	     20.19896981	      3.04110499	     -7.09127709	      4.60228737	    -25.77762722	      3.85771870	      0.42020665	     18.70983507	     34.92838991	    -32.91389044	     -0.37866398	      4.95423626
      2.79000000	     24.64259046	     -1.36417473	     -4.93261774	     -0.54327443	      0.95267604	      0.04435617	    -47.78823749	      1.60590820	     -7.24360928	     -2.04401725	     15.65744926	     19.99358400	      3.04874376	     -7.11903614	      4.80451281	    -25.71418227	      3.38423004	      0.02898709	     18.40291201	     34.90992880	    -32.79939731	     -0.64166142	      4.94478356
      2.79500000	     24.64014445	     -1.24871365	     -5.05130769	     -0.53644298	      0.95223729	      0.04450874	    -47.89002316	      1.34474754	     -7.00109540	     -2.63017713	     15.59040605	     19.71735045	      3.09611422	     -7.18148316	      4.96987754	    -25.39230846	      2.93387141	     -0.56784376	     17.58659076	     35.06718786	    -32.71562141	     -0.84807804	      4.92511878
      2.80000000	     24.59377399	     -1.04297749	     -5.20439392	     -0.52941579	      0.95179787	      0.04475873	    -47.90702577	      0.99504593	     -6.86244460	     -3.29838403	     15.56567907	     19.44778867	      3.14030280	     -7.15552035	      5.20344985	    -25.25646781	      2.34218082	     -1.06602465	     17.15644124	     35.14356699	    -32.55339928	     -1.16595464	      4.87147583
      2.80500000	     24.50085259	     -0.90455978	     -5.22166424	     -0.52261345	      0.95136995	      0.04473304	    -47.81466147	      0.78922400	     -6.74133693	     -4.05916687	     15.39920667	     19.18987102	      3.93201621	     -7.09533031	      5.35517836	    -24.66509569	      1.81429552	     -2.01875520	     15.80396422	     37.48025120	    -32.38256724	     -1.33560989	      4.76900275
      2.81000000	     24.50134182	     -0.69032223	     -5.33699704	     -0.51565235	      0.95112557	      0.04491029	    -47.84556808	      0.45548016	     -6.55803545	     -4.76120656	     15.16135867	     18.83523239	      4.06148843	     -7.12705733	      5.59398620	    -24.31365093	      1.19528534	     -2.64272026	     14.86042311	     37.58162444	    -32.28406393	     -1.65029804	      4.69310056
      2.81500000	     24.43957129	     -0.49173337	     -5.40902939	     -0.50877656	      0.95088705	      0.04499391	    -47.73024424	      0.16111962	     -6.40009128	     -5.61048840	     15.01378435	     18.54365322	      4.26791840	     -7.06652403	      5.78945181	    -23.84385388	      0.51302329	     -3.30571734	     13.83582385	     37.75340217	    -32.13465337	     -1.91799685	      4.59485806
      2.82000000	     24.35990186	     -0.24906036	     -5.44510498	     -0.50185119	      0.95068400	      0.04504879	    -47.56831674	     -0.13788665	     -6.31742157	     -6.50437447	     14.77096977	     18.22978081	      4.56074462	     -6.96727538	      6.01469114	    -23.31728705	     -0.22724559	     -3.90709430	     12.75877224	     38.01847251	    -31.95934737	     -2.21751754	      4.47009011
      2.82500000	     24.27410340	     -0.00649258	     -5.45924968	     -0.49494410	      0.95055046	      0.04505065	    -47.34979606	     -0.42738872	     -6.25069120	     -7.48363606	     14.45199322	     17.93280693	      4.98320754	     -6.85012216	      6.23016338	    -22.73583074	     -1.00843591	     -4.46189530	     11.60530908	     38.35466984	    -31.78479598	     -2.50412392	      4.30859695
